<?xml version="1.0" encoding="UTF-8" standalone="no"?>
<svg xmlns:rdf="http://www.w3.org/1999/02/22-rdf-syntax-ns#" xmlns="http://www.w3.org/2000/svg" height="123.16pt" width="123.19pt" version="1.1" xmlns:cc="http://creativecommons.org/ns#" xmlns:dc="http://purl.org/dc/elements/1.1/" viewBox="0 0 123.18979 123.1604">
    <g transform="matrix(.5 0 0 .5 -.92215 -1.346)">
        <ellipse rx="121.19" ry="121.16" cy="125.61" cx="124.83" fill="#fff"/>
        <ellipse rx="118.48" ry="118.73" cy="125.41" cx="124.86" fill="#004b8d"/>
        <path d="m156.42 26.891c-9.6248-0.01162-19.256 0.99708-28.678 2.9629l0.14454 0.125c2.575 2.1812 4.9443 4.5819 7.3691 6.9258 15.587-2.6062 31.662-2.2745 47.111 1.0879 0.11875 6.6689 0.0371 13.343 0.0371 20.018 2.0375 3.0249 4.1193 6.0183 6.3691 8.8867 0.0312-11.981-0.0379-23.962 0.0371-35.943-10.582-2.7259-21.483-4.0493-32.391-4.0625zm-39.447 5.9062c-19.373 6.112-37.185 16.957-51.697 31.15-15.48 15.2-27.2 34.28-33.425 55.083 2.7499 0.33749 5.4941 0.67422 8.25 0.98047 3.1562-10.225 7.8255-19.949 13.588-28.949 13.487-21.325 33.924-38.06 57.303-47.479 0.05 21.231-0.0191 42.455 0.0371 63.684 2.0125 2.0812 3.9194 4.2609 5.8008 6.4609l0.125 0.14453c-0.075-27.024-0.11174-54.052 0.0195-81.076zm82.773 1.5801-0.004 0.002c2.55 3.8812 4.7932 7.9505 7.3242 11.838 28.618 12.962 51.545 37.668 62.67 67.023 2.7999 1.0875 5.7122 1.9118 8.4121 3.2617 0.36875-0.29999 0.74454-0.60586 1.1133-0.91211-0.68124-1.9125-1.3699-3.831-2.1074-5.7246-13.25-34.782-42.32-63.093-77.41-75.483zm-47.459 20.061v0.002c-0.0875 31.849 0.0441 63.704-0.0684 95.559 10.075 0.075 20.142-0.0242 30.217 0.0508-0.0312 5.8059-0.005 11.606-0.0176 17.406 2.0125 1.875 4.0373 3.737 6.0938 5.5684l0.26171 0.23633c0.0312-10.181-0.0379-20.354 0.0371-30.535-10.225 0.0812-20.449 0.0125-30.668 0.0371 0.0562-27.274-0.0559-54.55 0.0566-81.824-1.7375-2.1625-3.6489-4.1671-5.4551-6.2734-0.1125-0.05625-0.34454-0.17031-0.45703-0.22656zm71.779 26.146c0.13125 50.624 0.0797 101.25 0.0234 151.88 12.5-11.55 22.494-25.968 28.062-42.105 6.1874 2.3937 12.293 5.0116 18.355 7.7051 2.3874-0.78124 4.7191-1.7352 7.0879-2.5664 0.81248-0.32499 1.8383-0.58713 2.1133-1.5371-10.456-4.3124-20.913-8.6385-31.275-13.17-3.3999 13.15-9.7494 25.556-18.387 36.037 0-40.218-0.1121-80.434 0.0566-120.65-1.5562-4.8937-3.5941-9.6136-5.2754-14.457-0.26218-0.38079-0.51202-0.75399-0.76172-1.1348zm-154.15 35.366c-2.1875 0.76248-4.4188 1.393-6.6875 1.8555-0.62499 0.16249-1.2504 0.33829-1.8691 0.51953 16.487 19.387 33.169 38.611 49.65 58.004 0.006 31.037-0.0195 62.078 0.0117 93.117 1.8125 3.5249 3.5617 7.1001 5.6055 10.5l0.20703 0.32617c0.15625-35.924 0.0117-71.855 0.0742-107.78 0.18124-0.84374-0.61681-1.3555-1.0293-1.9492-15.52-17.98-30.84-36.15-46.444-54.05l0.92383-0.48633c-0.1125-0.0187-0.33125-0.0438-0.4375-0.0625zm82.938 51.619c-0.15625 0.006-0.47422 0.0195-0.63672 0.0195 0.0813 30.33 0.0426 60.658 0.0176 90.992 10.15 0.31249 20.37-0.76724 30.195-3.3672-0.0375 6.6189 0.043 13.235-0.0508 19.854 2.075 2.4312 4.1625 4.8503 6.375 7.1562 0.075-11.987-0.0305-23.974 0.0508-35.961-9.8248 3.5437-20.219 5.5314-30.656 5.7754 0.0437-26.368-0.0637-52.729 0.0488-79.094-1.7687-1.8-3.5623-3.5813-5.3438-5.375zm-89.197 12.98c-10.812 4.2187-21.425 8.9626-32.162 13.375l0.5 0.17383c3.1749 1.1062 6.2761 2.4141 9.457 3.5078 6.1059-2.6312 12.235-5.2192 18.41-7.6816 6.1749 17.919 17.526 34.057 32.363 45.838 0.14375-0.2 0.42462-0.60665 0.56836-0.80664-2.3-4.2937-4.337-8.726-6.3184-13.17-10.906-11.54-18.781-25.88-22.819-41.23z" transform="matrix(.80002 0 0 .80002 0 -.00020752)" stroke="#fff" stroke-width=".74999" fill="#fff"/>
        <path d="m102.31 23.984c-0.035 67.504 0.0597 135.02-0.0453 202.52 16.01 3.645 32.816 3.13 48.74-0.725-1.77-1.845-3.44-3.78-5.1-5.7248-12.38 2.77-25.271 3.0253-37.766 0.87032-0.08-50.472-0.005-100.94-0.0297-151.41 0.065-13.33-0.12969-26.665 0.0953-39.99-1.94-1.8772-3.836-3.7968-5.896-5.542zm57.396 3.3852c-0.01 65.224 0.0244 130.45-0.0156 195.68 13.095-4.7152 25.24-12.046 35.47-21.491 12.995-11.91 22.84-27.2 28.36-43.944 0.125-0.765 0.965-1.7848 0.25-2.4398-0.22 0.76-1.0398 0.96968-1.6898 1.2297-1.895 0.665-3.7603 1.4297-5.6704 2.0547-8.7848 24.1-27.38 44.476-50.744 55.12-0.115-11.85-0.0244-23.705-0.0594-35.56 0.035-47.008-0.05-94.024 0.05-141.04-2.025-3.11-3.8202-6.3652-5.86-9.4704l-0.0898-0.13438zm-34.196 16.188c-1.1052 0.01088-2.2103 0.06532-3.3141 0.17656 1.445 1.685 2.9748 3.2895 4.3648 5.0196 8.3152 0.43 16.66 1.7606 24.46 4.7656-1.8-2.295-3.4653-4.69-5.0952-7.11-3.41-1.075-6.9548-1.6452-10.49-2.1352-3.2925-0.39-6.61-0.749-9.9256-0.7164zm-50.444 17.362c-7.3552 5.4448-13.495 12.42-18.54 20.03-2.65 4.1952-5.1444 8.53-6.8944 13.19 0.235 0.025 0.71468 0.08047 0.95468 0.10547 1.815-0.37 3.6-0.87516 5.35-1.4852l0.14531-0.04531c0.075-0.85 0.45968-1.615 0.85468-2.35 3.32-6.3048 7.3904-12.265 12.37-17.375-0.015 6.01 0.05438 12.015-0.04062 18.025 8.07 0 16.135 0.05 24.2-0.025-1.505-1.76-3.0298-3.5045-4.64-5.1696-4.5552 0.175-9.1152 0.07469-13.675 0.07969-0.125-8.3248 0.04984-16.655-0.08516-24.98zm104.8 4.4592c1.345 3.875 2.9753 7.6508 4.2204 11.566 6.43 8.0448 11.45 17.285 14.2 27.23 7.21-2.885 14.335-5.9852 21.515-8.9452 1.27-0.495 2.4798-1.1848 3.8398-1.4148-0.045-0.475-0.0845-0.955-0.11953-1.425l-0.112 0.084c-0.295 0.245-0.59484 0.48968-0.88984 0.72968-2.16-1.08-4.4904-1.7394-6.7304-2.6094-4.82 2.125-9.6448 4.2648-14.59 6.0796-3.345-8.8648-8.2444-17.13-14.394-24.33-2.165-2.465-4.3608-4.9308-6.9408-6.9656zm-154.59 29.824c14.759 17.02 29.335 34.2 44.036 51.268-0.085 10.32 0.16531 20.644-0.12969 30.959 1.585 3.555 3.2147 7.1 5.0548 10.535-0.115 0.16-0.33969 0.48532-0.45468 0.64532l-0.1 0.15c0.59 0.145 1.1847 0.29 1.7797 0.425-0.2-1.05-0.38031-2.0948-0.37031-3.1648 0.06-12.165-0.01484-24.326 0.03516-36.491-0.08-1.545 0.39016-3.41-0.91484-4.5752-14.11-16.255-27.97-32.73-42.128-48.94-2.205-0.245-4.4-0.51516-6.6-0.78516l-0.211-0.03zm105.88 38.683c-2.9569 0.0102-5.9124 0.0556-8.8656 0.17188 1.425 1.435 2.86 2.86 4.2752 4.3 8.08 0.17 16.165 0.0253 24.25 0.0703-1.645-1.465-3.265-2.9547-4.8752-4.4548-4.924-0.024-9.856-0.108-14.784-0.092zm-105.56 21.396c1.22 4.71 3.1052 9.23 5.11 13.66 11.32 24.5 32.584 44.16 57.884 53.544 1.55 0.56 3.0856 1.195 4.7156 1.475-1.635-2.72-3.0352-5.58-4.4852-8.4-23.63-9.2152-43.152-28.29-53.2-51.552-0.84-1.965-1.5852-3.97-2.4602-5.9248-2.545-0.875-5.0248-1.9205-7.5648-2.8055z" stroke="#e6a623" stroke-width="0.24" fill="#e7a614"/>
        <path d="m124.72 28.142c-5.5304 0.0063-11.06 0.46908-16.516 1.3812-0.225 13.325-0.0303 26.66-0.0953 39.99 0.025 50.472-0.0503 100.94 0.0297 151.41 12.495 2.155 25.386 1.8997 37.766-0.87032 0.075-5.2952 0.01-10.589 0.0398-15.884-7.86 2.08-16.036 2.9445-24.156 2.6945 0.02-24.265 0.0502-48.528-0.0148-72.796 0.13 0 0.38515-0.0106 0.51016-0.0156 7.8752-0.31 15.77-0.11938 23.65-0.0844 0.01-4.64-0.0102-9.28 0.0148-13.925-8.06-0.06-16.115 0.0194-24.175-0.0406 0.09-25.485-0.0145-50.968 0.0555-76.448 0.09 0.045 0.27484 0.13547 0.36484 0.18047 4.4152-0.445 8.85 0.01984 13.24 0.53984 3.535 0.49 7.08 1.0602 10.49 2.1352 0-5.34 0.0653-10.68-0.0297-16.015-6.9524-1.5131-14.064-2.2596-21.174-2.2516zm-35.926 6.7264c-18.705 7.5348-35.055 20.924-45.844 37.984-4.61 7.2-8.3444 14.98-10.87 23.16 14.156 16.212 28.012 32.688 42.124 48.94 1.305 1.165 0.83484 3.03 0.91484 4.5752-0.05 12.165 0.02484 24.326-0.03516 36.491-0.01 1.07 0.17031 2.1148 0.37031 3.1648-0.595-0.135-1.1897-0.28-1.7797-0.425l0.1-0.15c-11.87-9.4248-20.951-22.335-25.891-36.67-4.94 1.97-9.8448 4.0404-14.73 6.1452 0.875 1.955 1.6202 3.96 2.4602 5.9248 10.05 23.26 29.57 42.336 53.2 51.552-0.025-24.83-0.0052-49.664-0.01016-74.496-13.185-15.515-26.53-30.895-39.72-46.404 0.495-0.145 0.99532-0.28484 1.4953-0.41484-0.24-0.025-0.71968-0.08047-0.95468-0.10547 1.75-4.66 4.2444-8.9948 6.8944-13.19 5.0448-7.61 11.185-14.585 18.54-20.03 0.135 8.3248-0.03984 16.655 0.08516 24.98 4.56-0.005 9.12 0.09531 13.675-0.07969-0.045-16.985 0.01032-33.965-0.02968-50.948zm76.856 2.1048c-0.1 47.016-0.015 94.028-0.05 141.04 0.035 11.855-0.0556 23.71 0.0594 35.56 23.365-10.645 41.96-31.02 50.744-55.12-4.85-2.155-9.7352-4.25-14.685-6.1648-4.4552 12.91-12.45 24.445-22.45 33.685 0.045-40.5 0.0855-81.004-0.0195-121.5 0.2 0.305 0.39937 0.60436 0.60936 0.90936 2.58 2.035 4.7756 4.5008 6.9408 6.9656 6.15 7.2 11.05 15.465 14.394 24.33 4.9448-1.815 9.77-3.9547 14.59-6.0796-8.896-23.484-27.236-43.248-50.132-53.616z" stroke="#ffd24f" stroke-width="0.6" fill="#ffd046"/>
    </g>
</svg>
